<svg width="25" height="23" viewBox="0 0 25 23" fill="none" xmlns="http://www.w3.org/2000/svg">
<path d="M11.8757 21.6476L11.8758 21.6475C9.87802 20.4774 8.00309 19.1092 6.27928 17.5637L6.27858 17.5631C2.50591 14.1677 0.5 10.7026 0.5 7.26236V7.26222C0.500414 5.81579 0.964473 4.40759 1.82406 3.2443C2.68366 2.08101 3.89351 1.2239 5.27604 0.79877C6.65858 0.373639 8.14098 0.40288 9.50568 0.8822C10.6539 1.28549 11.6679 1.98954 12.445 2.91529C13.2221 1.98954 14.2361 1.28549 15.3843 0.8822C16.749 0.40288 18.2314 0.373639 19.614 0.79877C20.9965 1.2239 22.2063 2.08101 23.0659 3.2443C23.9255 4.40759 24.3896 5.81579 24.39 7.26222V7.26236C24.39 10.7026 22.3841 14.1677 18.6114 17.5631L18.6107 17.5637C16.8869 19.1092 15.012 20.4774 13.0142 21.6475L13.006 21.6524L13.0059 21.6523C12.8346 21.7483 12.6415 21.7987 12.4451 21.7987L11.8757 21.6476ZM11.8757 21.6476L11.8841 21.6523M11.8757 21.6476L11.8841 21.6523M11.8841 21.6523C12.0554 21.7483 12.2485 21.7987 12.4449 21.7987L11.8841 21.6523Z" stroke="#FCC436"/>
</svg>
